<svg xmlns="http://www.w3.org/2000/svg" width="44.577" height="41.204" viewBox="0 0 44.577 41.204"><g transform="translate(0 -0.037)"><path d="M36.254,10.762a12.913,12.913,0,0,0-23.925-4.29,7.4,7.4,0,0,0-1.357-.128A7.077,7.077,0,0,0,3.9,13.411a7.726,7.726,0,0,0,.147,1.467A9.835,9.835,0,0,0,0,22.807a10.514,10.514,0,0,0,2.668,6.957,9.521,9.521,0,0,0,6.6,3.318h7.957a1.238,1.238,0,0,0,0-2.475H9.377c-3.749-.229-6.9-3.8-6.9-7.81a7.347,7.347,0,0,1,3.639-6.325,1.248,1.248,0,0,0,.541-1.5,4.491,4.491,0,0,1-.275-1.577A4.6,4.6,0,0,1,10.972,8.8a4.514,4.514,0,0,1,1.568.275,1.243,1.243,0,0,0,1.549-.632A10.437,10.437,0,0,1,33.917,11.88a1.236,1.236,0,0,0,1.027,1.1A8.921,8.921,0,0,1,34.1,30.6H27.344a1.238,1.238,0,0,0,0,2.475h6.893a10.967,10.967,0,0,0,7.352-3.63,11.409,11.409,0,0,0-5.335-18.682Z" transform="translate(0 0.037)" fill="#650088"/><path d="M15.214,8.672a1.234,1.234,0,0,0,0-1.751L8.66.367A1.252,1.252,0,0,0,7.789,0a1.214,1.214,0,0,0-.871.367L.364,6.921a1.234,1.234,0,0,0,0,1.751,1.246,1.246,0,0,0,.871.367,1.208,1.208,0,0,0,.871-.367L6.552,4.226V24.658a1.237,1.237,0,1,0,2.475,0V4.226l4.446,4.446A1.223,1.223,0,0,0,15.214,8.672Z" transform="translate(14.504 15.345)" fill="#650088"/></g></svg>